inDegrees=no
num_controls=7
num_derivatives=13
num_iterations=98
num_multipliers=7
num_parameters=0
num_slacks=7
num_states=26
objective=0.445718
objective_accelerations=0.057760
objective_balance=0.003430
objective_effort=0.022840
objective_height=0.356158
objective_ligament=0.005530
solver_duration=1341.254993
status=Solve_Succeeded
success=true
DataType=double
version=3
OpenSimVersion=4.5
endheader
time	/jointset/ground_pelvis/pelvis_tilt/value	/jointset/ground_pelvis/pelvis_tx/value	/jointset/ground_pelvis/pelvis_ty/value	/jointset/hip_l/hip_flexion_l/value	/jointset/hip_l/hip_adduction_l/value	/jointset/hip_l/hip_rotation_l/value	/jointset/back/lumbar_extension/value	/jointset/patellofemoral_l/patellar_flexion_l/value	/jointset/knee_l/knee_flexion_l/value	/jointset/knee_l/knee_adduction_l/value	/jointset/knee_l/knee_rotation_l/value	/jointset/ankle_l/ankle_angle_l/value	/jointset/subtalar_l/subtalar_angle_l/value	/jointset/ground_pelvis/pelvis_tilt/speed	/jointset/ground_pelvis/pelvis_tx/speed	/jointset/ground_pelvis/pelvis_ty/speed	/jointset/hip_l/hip_flexion_l/speed	/jointset/hip_l/hip_adduction_l/speed	/jointset/hip_l/hip_rotation_l/speed	/jointset/back/lumbar_extension/speed	/jointset/patellofemoral_l/patellar_flexion_l/speed	/jointset/knee_l/knee_flexion_l/speed	/jointset/knee_l/knee_adduction_l/speed	/jointset/knee_l/knee_rotation_l/speed	/jointset/ankle_l/ankle_angle_l/speed	/jointset/subtalar_l/subtalar_angle_l/speed	/forceset/tau_hip_flexion_l	/forceset/tau_hip_adduction_l	/forceset/tau_hip_rotation_l	/forceset/tau_knee_flexion_l	/forceset/tau_ankle_angle_l	/forceset/tau_subtalar_angle_l	/forceset/tau_lumbar_extension	lambda_cid13_p0	lambda_cid13_p1	lambda_cid13_p2	lambda_cid13_p3	lambda_cid13_p4	lambda_cid13_p5	lambda_cid14_p0	/jointset/ground_pelvis/pelvis_tilt/accel	/jointset/ground_pelvis/pelvis_tx/accel	/jointset/ground_pelvis/pelvis_ty/accel	/jointset/hip_l/hip_flexion_l/accel	/jointset/hip_l/hip_adduction_l/accel	/jointset/hip_l/hip_rotation_l/accel	/jointset/back/lumbar_extension/accel	/jointset/patellofemoral_l/patellar_flexion_l/accel	/jointset/knee_l/knee_flexion_l/accel	/jointset/knee_l/knee_adduction_l/accel	/jointset/knee_l/knee_rotation_l/accel	/jointset/ankle_l/ankle_angle_l/accel	/jointset/subtalar_l/subtalar_angle_l/accel	gamma_cid13_p0	gamma_cid13_p1	gamma_cid13_p2	gamma_cid13_p3	gamma_cid13_p4	gamma_cid13_p5	gamma_cid14_p0
1.5	-0.3617052477229548	-0.02072961593308411	0.7620432683371579	1.09880965760938	-0.4346118413885958	-0.2092613667652347	-0.2258504242872592	0.8095121383267891	0.8095121383272689	-0.1294117657745772	-0.1435748968362529	0.1354357786545977	-0.01482177805866331	0.662119643672503	0.2646378910731156	0.5319799720304532	-2.434372455802301	0.2101475033356865	-0.7111461156199376	0.3135181356384527	-2.025116818427108	-2.025116818426498	-0.133887439304923	0.141130870394073	-0.4183774835386947	0.02582971590864275	-0.1733183897682804	0.03511137508963652	-0.008358287254241172	-0.2059080157225256	0.04316970479642512	0.03782678936162784	0.1680763496727035	-18.41957645530864	-15.9754161047049	5.377721042493173	-7.874199534575302	-521.6880206006066	-56.66180890912936	-24.67917723732424	0.6565463494613135	0.7215422913125458	-0.4981618860636954	-1.358064032629982	0.7073097997388488	-0.2058620163610636	1.552616183872584	-1.38310429178953	-1.383104291789582	0.1367206076098991	0.2391334067137018	-0.4908227543465173	0.5199220003687305	5.206322880305961e-07	5.541229015933366e-07	-3.003314228897941e-06	-1.115261615167623e-07	7.753285034144928e-07	1.701537381050539e-08	4.772579221683728e-07
1.51	-0.3550511618511059	-0.0180477901425967	0.7673368639284142	1.074400469739809	-0.4324769360858348	-0.2163814413507267	-0.2226406893052627	0.7891947402830343	0.7891947402830254	-0.1307477357944909	-0.142153339654411	0.1312272464772356	-0.0145400406091441	0.6685849594697726	0.2716518842725996	0.5265972725041121	-2.446997755491292	0.2167914764760953	-0.7127294438264563	0.3282418190008427	-2.037996347314641	-2.037996347314615	-0.1333297423296778	0.1431521628649023	-0.4232863672118963	0.03048197564401339	-0.1659791147423683	0.03363176968370937	-0.008035775314608853	-0.2033811411830183	0.04359639133312993	0.03702320874783236	0.1618922451986683	-18.01738502833516	-15.70119604409221	5.338975726878652	-7.475280979592771	-516.5436794527758	-56.91358008465848	-25.59774850802763	0.6246647940392496	0.6800439938102222	-0.579447952335205	-1.14461976025008	0.6367136885487549	-0.1132287106139026	1.404188148357434	-1.185504636980985	-1.18550463706859	0.01198346946806249	0.1789294715326752	-0.4844911354980337	0.4325192599509208	5.110047045833595e-07	1.126130598801853e-06	-2.368846991500472e-06	3.986950010732359e-08	7.820122533557102e-07	1.644024013523344e-07	4.721413563772625e-07
1.52	-0.3483357947014512	-0.01529808118820577	0.7725724077311239	1.049879057508704	-0.4302768365282	-0.2235130813158467	-0.2192893287424544	0.7687595214604553	0.7687595214599504	-0.1320787909992546	-0.1407125090870067	0.126970911470803	-0.01421285230230527	0.6743758992342285	0.2782145238538211	0.5203696143211429	-2.456817328108935	0.2231863543107811	-0.7134591915456396	0.3418432518006466	-2.048680974192005	-2.048680974192564	-0.1329044762749842	0.144985547506338	-0.4279380493527393	0.0349198873725723	-0.1586398397164295	0.03215216427777871	-0.007713263374982154	-0.2008542666435097	0.04402307786983225	0.03621962813403434	0.1557081407246621	-17.61601225115126	-15.42936725690654	5.303508135161271	-7.115938933202692	-511.4309610251872	-57.21651755474868	-26.51579315461748	0.521671142898499	0.631271567660093	-0.6671536173892838	-0.7969186183600995	0.6574907385942558	-0.03514591889400003	1.32816607135529	-0.9441238897557742	-0.9441238897557939	0.1102344234995921	0.2015518408349902	-0.439382447874782	0.4770523990063958	4.714494585943749e-07	1.326661990271813e-06	-1.940662337903619e-06	1.18974137351859e-07	7.161083755830058e-07	2.423080589151635e-07	4.426180252850358e-07
1.53	-0.3415660753647344	-0.01248438313095644	0.7777419682034884	1.025271970064483	-0.4280134113970582	-0.2306483994331253	-0.2158044810439716	0.7482273276538925	0.7482273276533236	-0.133405006508743	-0.1392535458969767	0.1226701449317711	-0.01384113105037465	0.6794838822096493	0.2845173615962495	0.5134603227757673	-2.464369545469946	0.2294827264301333	-0.7135351699808279	0.3552011407382972	-2.057538235335322	-2.057538235335851	-0.1323263007141494	0.1468037649278863	-0.4321153053677049	0.03945369619647884	-0.1539085652220345	0.03159796385511822	-0.007336407461545933	-0.1976905979332573	0.04376906035685484	0.03559275253045381	0.1520016647552403	-17.54840155265391	-15.18248485714551	5.279604073671148	-7.126193199341857	-508.69024417632	-57.40683261379866	-27.4330264717824	0.4927728361861417	0.6286554773243255	-0.7150412276055952	-0.6997497515897242	0.613397592913985	0.01689527406881031	1.350828231261598	-0.8236659537392499	-0.8236659537348229	0.03356228605120378	0.1711160054887229	-0.3918784015150724	0.4459703248607544	4.000960711547833e-07	1.132499806894562e-06	-1.731652929594918e-06	1.21269561193123e-07	5.730801433642602e-07	2.463897608753058e-07	3.871625060603731e-07
1.54	-0.3347477940060006	-0.009607883576324914	0.7828399908995003	1.00059628515533	-0.4256874851158616	-0.2377823335187761	-0.2121838088708532	0.7276131334904761	0.7276131334898368	-0.1347250496298953	-0.1377765686701865	0.1183306095879476	-0.0134231866700494	0.6840883036379675	0.2907748233302608	0.5060620590506428	-2.470536821095682	0.2356865843218178	-0.7131823852200126	0.3690081467276193	-2.065081045563422	-2.065081045563921	-0.1316699986062834	0.1485883548563946	-0.4356918103109745	0.04416451305150493	-0.1491772907276167	0.03104376343245482	-0.006959551548169012	-0.1945269292230001	0.04351504284387453	0.03496587692686826	0.1482951887858435	-17.48449885656204	-14.93834285913671	5.260009732352389	-7.169323878899377	-506.0229985263236	-57.6469690173384	-28.35011953228656	0.4209588334779487	0.6221963659766979	-0.7649480533390415	-0.5199302713053309	0.6389878930607137	0.05060672030666882	1.41798948168954	-0.6812337067122181	-0.6812337067122289	0.1258597329058197	0.1948263422270037	-0.3192322335355439	0.5124540052303201	3.765787346479866e-07	1.142108763058933e-06	-1.619401895391325e-06	1.370885448245936e-07	5.390076297539812e-07	2.877432015776255e-07	3.693206540152238e-07
